<svg width="36" height="36" viewBox="0 0 36 36" fill="none" xmlns="http://www.w3.org/2000/svg">
<path id="github" fill-rule="evenodd" clip-rule="evenodd" d="M18 0C27.9414 0 36 8.26186 36 18.4553C36 26.6074 30.8484 33.5231 23.7006 35.9657C22.788 36.1475 22.464 35.5711 22.464 35.0797C22.464 34.4713 22.4856 32.4842 22.4856 30.0146C22.4856 28.2938 21.9096 27.1707 21.2634 26.5983C25.272 26.1411 29.484 24.5804 29.484 17.492C29.484 15.476 28.7856 13.8309 27.63 12.5385C27.8172 12.0723 28.4346 10.1951 27.4536 7.65351C27.4536 7.65351 25.9452 7.15899 22.509 9.54579C21.0708 9.13719 19.53 8.9316 18 8.9244C16.47 8.9316 14.931 9.13719 13.4946 9.54579C10.0548 7.15899 8.54279 7.65351 8.54279 7.65351C7.5654 10.1951 8.1828 12.0723 8.3682 12.5385C7.218 13.8309 6.5142 15.476 6.5142 17.492C6.5142 24.5624 10.7172 26.1471 14.715 26.6133C14.2002 27.0741 13.734 27.8869 13.572 29.0803C12.546 29.5519 9.93958 30.3681 8.33399 27.5475C8.33399 27.5475 7.38179 25.7743 5.57459 25.6447C5.57459 25.6447 3.81959 25.6214 5.45219 26.7662C5.45219 26.7662 6.63119 27.3332 7.45019 29.4662C7.45019 29.4662 8.5068 32.7601 13.5144 31.6441C13.5234 33.1867 13.5396 34.6405 13.5396 35.0797C13.5396 35.5675 13.2084 36.1384 12.3102 35.9674C5.15699 33.5284 0 26.6092 0 18.4553C0 8.26186 8.06039 0 18 0Z" fill="#A8A7A7"/>
</svg>
