<svg width="36" height="36" viewBox="0 0 36 36" fill="none" xmlns="http://www.w3.org/2000/svg">
<path id="Linkedin" d="M33.3365 0H2.65631C2.64671 0 2.6359 0 2.6239 0C1.18472 0 0.0168045 1.15711 0 2.59149V33.4061C0.0168045 34.8417 1.18472 36 2.6239 36C2.6359 36 2.64671 36 2.65871 36H33.3329C33.3425 36 33.3545 36 33.3665 36C34.8069 36 35.9772 34.8441 36 33.4085V33.4061V2.59389C35.9772 1.15711 34.8069 0 33.3653 0C33.3533 0 33.3425 0 33.3305 0H33.3365ZM10.6768 30.6778H5.33062V13.5H10.6768V30.6778ZM8.00493 11.1498C6.29448 11.1498 4.90931 9.7634 4.90931 8.05415C4.90931 6.34489 6.29568 4.95852 8.00493 4.95852C9.71419 4.95852 11.1006 6.34369 11.1006 8.05295C11.1006 8.05415 11.1006 8.05535 11.1006 8.05775C11.1006 9.7658 9.71539 11.151 8.00733 11.151C8.00613 11.151 8.00493 11.151 8.00373 11.151L8.00493 11.1498ZM30.6694 30.6778H25.3388V22.3248C25.3388 20.3322 25.2979 17.7695 22.5612 17.7695C19.7813 17.7695 19.3576 19.9373 19.3576 22.1783V30.679H14.0269V13.5012H19.1475V15.843H19.2171C20.211 14.1686 22.0091 13.0643 24.0652 13.0643C24.1384 13.0643 24.2105 13.0655 24.2825 13.0679H24.2717C29.6731 13.0679 30.6718 16.6232 30.6718 21.2505V30.679L30.6694 30.6778Z" fill="#A8A7A7"/>
</svg>
