<svg width="400" height="400" fill="none" xmlns="http://www.w3.org/2000/svg" style="">
  <rect id="backgroundrect" width="100%" height="100%" x="0" y="0" fill="none" stroke="none" />
  <defs>
    <linearGradient id="paint0_linear_28_46" x1="0.49998196959495544" y1="0.0021046483889222145" x2="0.49998196959495544" y2="1.002104640007019">
      <stop stop-opacity="0" />
      <stop offset="1" />
    </linearGradient>
  </defs>
  <g class="currentLayer" style="">
    <title>Layer 1</title>
    <path d="M189.667,171.27735392808916 H218 V346.63800017595287 H189.667 V171.27735392808916 z" fill="#45ADA8" id="svg_4" class="" />
    <path fill-rule="evenodd" clip-rule="evenodd" d="M200 400C310.457 400 400 310.457 400 200C400 89.5431 310.457 0 200 0C89.5431 0 0 89.5431 0 200C0 310.457 89.5431 400 200 400ZM200 384.589C301.946 384.589 384.589 301.946 384.589 200C384.589 98.0543 301.946 15.411 200 15.411C98.0543 15.411 15.4109 98.0543 15.4109 200C15.4109 301.946 98.0543 384.589 200 384.589Z" fill="#45ADA8" id="svg_1" />
    <rect x="120.66699981689453" y="113" width="28.33329963684082" height="153.66700744628906" fill="#45ADA8" id="svg_2" />
    <rect x="120.66699981689453" y="240" width="97.33329772949219" height="28.33329963684082" fill="#45ADA8" id="svg_3" />
    <path d="M105.667 117.534L134.534 67.5342L163.402 117.534L105.667 117.534Z" fill="#45ADA8" id="svg_6" />
    <path d="M189.667 174.638H218V346.638H189.667V174.638Z" fill="url(#paint0_linear_28_46)" fill-opacity="0.3" id="svg_5" class="" />
    <path fill-rule="evenodd" clip-rule="evenodd" d="M189.667 146.333H250.828V146.386C283.331 147.727 309.27 174.501 309.27 207.333C309.27 240.166 283.331 266.94 250.828 268.281V268.333H248.27H189.667V240.006H196.748H248.109V240.006C248.162 240.006 248.216 240.006 248.27 240.006C266.314 240.006 280.943 225.378 280.943 207.333C280.943 189.289 266.314 174.661 248.27 174.661C248.248 174.661 248.227 174.661 248.205 174.661C248.173 174.661 248.141 174.661 248.109 174.661V174.661H196.748C196.748 174.661 196.748 174.661 196.748 174.661H189.667V146.333Z" fill="#45ADA8" id="svg_7" class="" />
  </g>
</svg>
